<?xml version="1.0"?>
<svg xmlns="http://www.w3.org/2000/svg" width="50" height="50" viewBox="0 0 50 50">
    <path d="M 0 4 L 0 6 L 50 6 L 50 4 L 0 4 z M 25.09375 8.09375 C 23.49375 8.09375 23.09375 9 23.09375 10 L 23.09375 27 C 23.09375 29.2 22.2125 30.90625 18.3125 30.90625 C 12.7125 30.90625 10.40625 32.3125 10.40625 35.8125 C 10.40625 38.2125 10.9125 41.6875 18.3125 41.6875 C 25.1125 41.6875 25.09375 36.5125 25.09375 33.8125 L 25.09375 18.59375 C 25.09375 17.29375 25.5125 17 26.3125 17 C 31.3125 17 30.09375 20 37.09375 20 C 37.09375 20 39 20.1125 39 18.3125 L 39 13 C 39 11.5 38.39375 11.09375 37.09375 11.09375 C 30.09375 11.09375 31.69375 8.09375 25.09375 8.09375 z M 0 14 L 0 16 L 21 16 L 21 14 L 0 14 z M 41 14 L 41 16 L 50 16 L 50 14 L 41 14 z M 0 24 L 0 26 L 21 26 L 21 24 L 0 24 z M 27 24 L 27 26 L 50 26 L 50 24 L 27 24 z M 0 34 L 0 36 L 8.40625 36 C 8.40625 36 8.2125 34.7 8.8125 34 L 0 34 z M 27 34 C 27 35.4 26.8125 36 26.8125 36 L 50 36 L 50 34 L 27 34 z M 0 44 L 0 46 L 50 46 L 50 44 L 0 44 z"/>
</svg>
